<svg width="64" height="64" viewBox="0 0 64 64" fill="none" xmlns="http://www.w3.org/2000/svg">
<rect width="64" height="64" rx="16" fill="black"/>
<path d="M29.5227 29.1051L27.2131 29.5142C27.1165 29.2187 26.9631 28.9375 26.7528 28.6705C26.5483 28.4034 26.2699 28.1847 25.9176 28.0142C25.5653 27.8437 25.125 27.7585 24.5966 27.7585C23.875 27.7585 23.2727 27.9205 22.7898 28.2443C22.3068 28.5625 22.0653 28.9744 22.0653 29.4801C22.0653 29.9176 22.2273 30.2699 22.5511 30.5369C22.875 30.804 23.3977 31.0227 24.1193 31.1932L26.1989 31.6705C27.4034 31.9489 28.3011 32.3778 28.892 32.9574C29.483 33.5369 29.7784 34.2898 29.7784 35.2159C29.7784 36 29.5511 36.6989 29.0966 37.3125C28.6477 37.9205 28.0199 38.3977 27.2131 38.7443C26.4119 39.0909 25.483 39.2642 24.4261 39.2642C22.9602 39.2642 21.7642 38.9517 20.8381 38.3267C19.9119 37.696 19.3438 36.8011 19.1335 35.642L21.5966 35.267C21.75 35.9091 22.0653 36.3949 22.5426 36.7244C23.0199 37.0483 23.642 37.2102 24.4091 37.2102C25.2443 37.2102 25.9119 37.0369 26.4119 36.6903C26.9119 36.3381 27.1619 35.9091 27.1619 35.4034C27.1619 34.9943 27.0085 34.6506 26.7017 34.3722C26.4006 34.0937 25.9375 33.8835 25.3125 33.7415L23.0966 33.2557C21.875 32.9773 20.9716 32.5341 20.3864 31.9261C19.8068 31.3182 19.517 30.5483 19.517 29.6165C19.517 28.8437 19.733 28.1676 20.1648 27.5881C20.5966 27.0085 21.1932 26.5568 21.9545 26.233C22.7159 25.9034 23.5881 25.7386 24.571 25.7386C25.9858 25.7386 27.0994 26.0455 27.9119 26.6591C28.7244 27.267 29.2614 28.0824 29.5227 29.1051ZM35.1286 31.2273V39H32.5803V21.5455H35.0945V28.0398H35.2564C35.5632 27.3352 36.032 26.7756 36.6626 26.3608C37.2933 25.946 38.1172 25.7386 39.1342 25.7386C40.032 25.7386 40.8161 25.9233 41.4865 26.2926C42.1626 26.6619 42.6854 27.2131 43.0547 27.946C43.4297 28.6733 43.6172 29.5824 43.6172 30.6733V39H41.0689V30.9801C41.0689 30.0199 40.8217 29.2756 40.3274 28.7472C39.8331 28.2131 39.1456 27.946 38.2649 27.946C37.6626 27.946 37.1229 28.0739 36.6456 28.3295C36.174 28.5852 35.8018 28.9602 35.5291 29.4545C35.2621 29.9432 35.1286 30.5341 35.1286 31.2273Z" fill="white"/>
</svg>
